<svg width="353" height="346" viewBox="0 0 353 346" fill="none" xmlns="http://www.w3.org/2000/svg">
<ellipse cx="135.639" cy="133.182" rx="135.639" ry="133.182" transform="matrix(1 0 0 -1 39.1387 312.911)" stroke="#E8F1FF" stroke-width="3"/>
<path fill-rule="evenodd" clip-rule="evenodd" d="M294.647 258.489L302.746 250.537C305.962 247.379 305.962 242.259 302.746 239.102L296.439 232.909C293.223 229.752 293.223 224.632 296.439 221.475L304.538 213.523C307.754 210.365 312.968 210.365 316.184 213.522L316.833 214.16C320.049 217.317 325.263 217.317 328.479 214.16L336.577 206.208C339.793 203.05 339.793 197.93 336.577 194.773L166.553 27.8276C163.337 24.6702 158.123 24.6702 154.907 27.828L146.808 35.78C143.593 38.9374 143.593 44.0571 146.808 47.2145C150.024 50.3724 150.024 55.4921 146.808 58.65L138.71 66.6019C135.494 69.7598 130.28 69.7594 127.064 66.6015L104.546 44.4916C101.33 41.3338 96.1157 41.3338 92.8996 44.4916L84.801 52.4436C81.5849 55.6014 81.5849 60.7212 84.801 63.879L93.6364 72.5544C96.8525 75.7123 96.8525 80.832 93.6369 83.9894L85.5383 91.9413C82.3221 95.0992 77.108 95.0992 73.8919 91.9414L73.8705 91.9204C70.6548 88.7629 65.4407 88.7629 62.225 91.9204L54.1264 99.8723C50.9103 103.03 50.9103 108.15 54.1259 111.307L55.4045 112.563C58.6202 115.72 58.6202 120.84 55.4045 123.997L47.3059 131.949C44.0898 135.107 38.8757 135.107 35.66 131.95L32.488 128.835C29.2718 125.677 24.0581 125.678 20.8425 128.835L12.7438 136.787C9.52773 139.945 9.52774 145.064 12.7439 148.222L205.944 337.922C209.16 341.08 214.373 341.08 217.589 337.922L225.688 329.97C228.903 326.813 228.904 321.694 225.688 318.536L216.187 309.207C212.971 306.049 212.971 300.93 216.187 297.772L224.286 289.82C227.501 286.662 232.716 286.662 235.932 289.82L247.836 301.509C251.052 304.667 256.266 304.667 259.482 301.509L267.581 293.557C270.796 290.399 270.796 285.28 267.58 282.122L263.969 278.576C260.753 275.418 260.753 270.299 263.969 267.141L272.068 259.189C275.284 256.031 280.498 256.031 283.714 259.189L283.001 258.489C286.217 261.647 291.431 261.647 294.647 258.489Z" fill="#DBE8EC"/>
<path d="M203.705 72.4543L217.204 85.7083" stroke="#B9D4DB" stroke-width="3" stroke-linecap="round"/>
<path d="M202.87 79.4983L216.368 92.7522" stroke="#B9D4DB" stroke-width="3" stroke-linecap="round"/>
<path d="M202.034 85.7209L215.532 98.9749" stroke="#B9D4DB" stroke-width="3" stroke-linecap="round"/>
<path d="M294.492 158.702L307.99 171.956" stroke="#B9D4DB" stroke-width="3" stroke-linecap="round"/>
<path d="M296.998 168.208L310.497 181.462" stroke="#B9D4DB" stroke-width="3" stroke-linecap="round"/>
<path d="M297.834 176.894L311.333 190.148" stroke="#B9D4DB" stroke-width="3" stroke-linecap="round"/>
<path d="M42.9293 253.617L55.2003 267.976" stroke="#B9D4DB" stroke-width="3" stroke-linecap="round"/>
<path d="M58.5748 260.687L70.8458 275.046" stroke="#B9D4DB" stroke-width="3" stroke-linecap="round"/>
<path d="M42.983 265.349L55.254 279.708" stroke="#B9D4DB" stroke-width="3" stroke-linecap="round"/>
<path fill-rule="evenodd" clip-rule="evenodd" d="M261.547 141.898C265.753 143.488 267.849 148.125 266.229 152.255C264.609 156.383 259.887 158.441 255.682 156.851C251.476 155.261 249.38 150.624 251 146.495C252.62 142.365 257.342 140.308 261.547 141.898Z" fill="#B9D4DB"/>
<path fill-rule="evenodd" clip-rule="evenodd" d="M246.733 163.027C248.913 163.852 250 166.256 249.16 168.397C248.32 170.538 245.872 171.605 243.691 170.781C241.511 169.956 240.424 167.552 241.263 165.411C242.104 163.27 244.552 162.203 246.733 163.027Z" fill="#B9D4DB"/>
<path fill-rule="evenodd" clip-rule="evenodd" d="M240.023 134.842C243.138 136.02 244.691 139.455 243.491 142.514C242.291 145.572 238.793 147.097 235.678 145.919C232.563 144.74 231.011 141.306 232.21 138.247C233.41 135.189 236.908 133.664 240.023 134.842Z" fill="#B9D4DB"/>
<path fill-rule="evenodd" clip-rule="evenodd" d="M100.283 242.297C100.303 247.562 95.9733 251.846 90.6113 251.866C85.2494 251.886 80.8864 247.635 80.8659 242.37C80.8455 237.105 85.1755 232.821 90.5374 232.801C95.899 232.781 100.262 237.033 100.283 242.297Z" fill="#B9D4DB"/>
<path fill-rule="evenodd" clip-rule="evenodd" d="M77.0804 235.526C77.0907 238.268 74.8358 240.499 72.043 240.51C69.2499 240.52 66.9776 238.305 66.9664 235.563C66.9562 232.821 69.2116 230.589 72.0043 230.579C74.797 230.569 77.0698 232.783 77.0804 235.526Z" fill="#B9D4DB"/>
<path fill-rule="evenodd" clip-rule="evenodd" d="M79.5846 218.655C79.5908 220.236 78.2899 221.524 76.6788 221.53C75.068 221.536 73.7569 220.258 73.7507 218.677C73.7449 217.095 75.0458 215.808 76.6565 215.802C78.2677 215.795 79.5788 217.073 79.5846 218.655Z" fill="#B9D4DB"/>
<path fill-rule="evenodd" clip-rule="evenodd" d="M99.8091 220.665C99.8238 224.458 96.7052 227.543 92.8431 227.558C88.981 227.572 85.8388 224.51 85.8237 220.718C85.809 216.926 88.9276 213.84 92.7897 213.826C96.6518 213.811 99.7944 216.873 99.8091 220.665Z" fill="#B9D4DB"/>
<path fill-rule="evenodd" clip-rule="evenodd" d="M123.135 77.6102C117.891 78.7069 112.734 75.4219 111.617 70.2724C110.5 65.1234 113.845 60.0601 119.089 58.9633C124.334 57.8661 129.491 61.1511 130.608 66.3002C131.725 71.4496 128.379 76.5129 123.135 77.6102Z" fill="#B9D4DB"/>
<path fill-rule="evenodd" clip-rule="evenodd" d="M125.268 53.8607C122.537 54.432 119.851 52.721 119.269 50.0392C118.687 47.3565 120.429 44.7197 123.161 44.1479C125.892 43.5766 128.579 45.2876 129.161 47.9698C129.743 50.6521 128 53.2893 125.268 53.8607Z" fill="#B9D4DB"/>
<path fill-rule="evenodd" clip-rule="evenodd" d="M158.006 60.4612C155.642 60.956 153.316 59.4746 152.813 57.1534C152.309 54.8322 153.818 52.5495 156.182 52.0546C158.546 51.5602 160.871 53.0412 161.374 55.3629C161.878 57.6845 160.37 59.9668 158.006 60.4612Z" fill="#B9D4DB"/>
<path fill-rule="evenodd" clip-rule="evenodd" d="M142.469 52.8797C140.893 53.2089 139.344 52.2218 139.008 50.6752C138.673 49.1278 139.678 47.6065 141.254 47.2774C142.829 46.9473 144.378 47.9344 144.714 49.4814C145.05 51.0284 144.045 52.5501 142.469 52.8797Z" fill="#B9D4DB"/>
<path fill-rule="evenodd" clip-rule="evenodd" d="M144.603 72.7285C140.826 73.5188 137.111 71.1526 136.306 67.4439C135.502 63.7348 137.911 60.0874 141.688 59.2979C145.466 58.508 149.181 60.8738 149.985 64.5829C150.789 68.2915 148.38 71.9381 144.603 72.7285Z" fill="#B9D4DB"/>
<path fill-rule="evenodd" clip-rule="evenodd" d="M217.689 190.974H131.867C129.235 190.974 127.099 188.877 127.099 186.293V123.872C127.099 121.288 129.235 119.19 131.867 119.19H217.689C220.321 119.19 222.457 121.288 222.457 123.872V186.293C222.457 188.877 220.321 190.974 217.689 190.974Z" fill="#0455BF"/>
<path fill-rule="evenodd" clip-rule="evenodd" d="M208.153 184.732H136.635C134.88 184.732 133.456 183.334 133.456 181.611V128.554C133.456 126.831 134.88 125.433 136.635 125.433H206.564C208.319 125.433 209.743 126.831 209.743 128.554V183.172C209.743 184.033 209.031 184.732 208.153 184.732Z" fill="#FDFEFF"/>
<path fill-rule="evenodd" clip-rule="evenodd" d="M136.635 181.611V128.554C136.635 126.831 138.059 125.433 139.813 125.433H136.635C134.88 125.433 133.456 126.831 133.456 128.554V181.611C133.456 183.334 134.88 184.732 136.635 184.732H139.813C138.059 184.732 136.635 183.334 136.635 181.611Z" fill="#DFEAEF"/>
<path fill-rule="evenodd" clip-rule="evenodd" d="M189.081 155.082C189.081 162.837 182.675 169.126 174.777 169.126C166.88 169.126 160.474 162.837 160.474 155.082C160.474 147.327 166.88 141.037 174.777 141.037C182.675 141.037 189.081 147.327 189.081 155.082Z" fill="#0455BF"/>
<path fill-rule="evenodd" clip-rule="evenodd" d="M181.135 161.325C181.135 160.212 181.747 159.188 182.724 158.634C180.613 157.407 177.939 158.911 177.956 161.325V166.006C179.024 166.006 180.092 165.884 181.135 165.648V161.325Z" fill="#004787"/>
<path fill-rule="evenodd" clip-rule="evenodd" d="M177.957 166.006C172.577 166.014 167.652 163.056 165.209 158.349C162.767 153.645 163.223 147.996 166.385 143.72C162.992 146.133 160.847 149.881 160.517 153.978C160.184 158.074 161.699 162.105 164.664 165.014C167.618 167.916 171.725 169.404 175.895 169.079C180.067 168.753 183.892 166.649 186.342 163.316C183.909 165.063 180.97 166.006 177.957 166.006Z" fill="#004787"/>
<path fill-rule="evenodd" clip-rule="evenodd" d="M171.599 161.324C170.722 161.324 170.01 160.625 170.01 159.764V150.401C170.01 149.237 171.252 148.482 172.311 149.002L181.847 153.684C182.815 154.165 183.023 155.432 182.26 156.179C182.012 156.424 182.012 156.424 172.311 161.154C172.086 161.268 171.847 161.324 171.599 161.324Z" fill="#FEBC00"/>
<path fill-rule="evenodd" clip-rule="evenodd" d="M181.847 153.684L181.535 153.53L175.49 156.48C174.43 157.001 173.188 156.245 173.188 155.082V149.433L172.311 149.002C171.252 148.482 170.01 149.237 170.01 150.401V159.764C170.001 160.927 171.243 161.682 172.303 161.17C181.995 156.439 181.995 156.439 182.252 156.195C183.015 155.44 182.807 154.171 181.838 153.701L181.847 153.684Z" fill="#EDAA03"/>
<path fill-rule="evenodd" clip-rule="evenodd" d="M157.296 172.248H142.992V175.369H187.493V172.248H157.296Z" fill="#0455BF"/>
<path fill-rule="evenodd" clip-rule="evenodd" d="M216.1 151.961C217.854 151.961 219.278 153.684 219.278 155.082C219.278 156.805 217.854 158.203 216.1 158.203C214.345 158.203 212.921 156.48 212.921 155.082C212.921 153.359 214.345 151.961 216.1 151.961Z" fill="#FEBC00"/>
<path fill-rule="evenodd" clip-rule="evenodd" d="M217.689 156.644C215.379 156.652 213.841 154.303 214.801 152.247C212.764 153.131 212.266 155.757 213.841 157.301C215.422 158.853 218.088 158.366 218.997 156.367C218.583 156.546 218.136 156.644 217.689 156.644Z" fill="#EDAA03"/>
<path fill-rule="evenodd" clip-rule="evenodd" d="M203.385 181.611C201.63 181.611 200.206 183.009 200.206 184.732V180.05C200.206 175.889 193.849 175.889 193.849 180.05V173.808C193.849 169.647 187.492 169.647 187.492 173.808V161.324C187.492 157.163 181.135 157.163 181.135 161.324V192.803C181.135 194.534 179.007 195.396 177.765 194.176L171.599 188.121C170.366 186.869 168.321 186.854 167.07 188.088C165.814 189.316 165.829 191.324 167.104 192.535L173.843 199.16L176.68 201.939C179.62 204.823 181.275 208.741 181.275 212.821H202.451V212.237C202.451 209.994 203.169 207.807 204.502 205.978C205.843 204.157 206.564 201.971 206.564 199.728V184.732C206.564 183.009 205.14 181.611 203.385 181.611Z" fill="#ECC19C"/>
<path fill-rule="evenodd" clip-rule="evenodd" d="M152.527 176.929C149.696 176.929 148.28 173.565 150.277 171.598C152.279 169.638 155.706 171.028 155.706 173.808C155.706 175.531 154.282 176.929 152.527 176.929Z" fill="#FEBC00"/>
<path fill-rule="evenodd" clip-rule="evenodd" d="M154.117 175.369C151.807 175.377 150.269 173.028 151.229 170.973C149.192 171.857 148.694 174.483 150.269 176.027C151.849 177.579 154.515 177.092 155.424 175.092C155.011 175.271 154.564 175.369 154.117 175.369Z" fill="#EDAA03"/>
<path fill-rule="evenodd" clip-rule="evenodd" d="M167.104 188.121C167.304 187.934 167.526 187.772 167.759 187.635C165.382 186.268 162.485 188.334 163.065 190.974H166.244C166.019 189.942 166.344 188.868 167.104 188.121ZM177.956 190.975H181.135V184.732H177.956V190.975Z" fill="#004787"/>
<mask id="mask0_1036_2963" style="mask-type:luminance" maskUnits="userSpaceOnUse" x="127" y="119" width="96" height="94">
<path fill-rule="evenodd" clip-rule="evenodd" d="M127.099 212.822H222.457V119.19H127.099V212.822Z" fill="white"/>
</mask>
<g mask="url(#mask0_1036_2963)">
<path fill-rule="evenodd" clip-rule="evenodd" d="M177.956 184.732H181.134V175.369H177.956V184.732ZM181.134 167.647C180.761 167.826 180.382 167.997 180.001 168.143C179.867 168.193 179.736 168.24 179.594 168.29C179.238 168.419 178.875 168.526 178.502 168.623C178.346 168.663 178.172 168.713 178.004 168.752L177.947 168.769V172.248H181.126L181.134 167.647Z" fill="#DFEAEF"/>
<path fill-rule="evenodd" clip-rule="evenodd" d="M181.135 165.648C180.092 165.884 179.024 166.006 177.956 166.006V168.761L178.013 168.753C178.693 168.591 179.355 168.387 180.001 168.143C180.389 167.989 180.77 167.835 181.135 167.64V165.648ZM177.956 175.369H181.135V172.248H177.956V175.369Z" fill="#004787"/>
</g>
</svg>
