<svg width="19" height="20" viewBox="0 0 19 20" fill="none" xmlns="http://www.w3.org/2000/svg">
<path d="M18.7957 11.3851L17.2124 5.6884C16.7483 4.01951 15.7396 2.55364 14.3468 1.52379C12.954 0.493945 11.2569 -0.0407771 9.52525 0.00462298C7.79363 0.0500231 6.12687 0.67294 4.78992 1.77436C3.45296 2.87578 2.52253 4.39249 2.14653 6.0834L0.920696 11.5959C0.785292 12.205 0.788423 12.8368 0.929857 13.4445C1.07129 14.0522 1.34742 14.6205 1.73785 15.1072C2.12828 15.5939 2.62305 15.9868 3.18562 16.2567C3.7482 16.5266 4.36422 16.6668 4.9882 16.6667H5.91653C6.10779 17.6086 6.6188 18.4555 7.36298 19.0637C8.10716 19.672 9.03873 20.0042 9.99986 20.0042C10.961 20.0042 11.8926 19.672 12.6367 19.0637C13.3809 18.4555 13.8919 17.6086 14.0832 16.6667H14.7815C15.4239 16.6668 16.0575 16.5183 16.633 16.2329C17.2085 15.9476 17.7102 15.533 18.0989 15.0216C18.4876 14.5103 18.7528 13.9159 18.8739 13.2851C18.9949 12.6543 18.9684 12.004 18.7965 11.3851H18.7957ZM9.99986 18.3334C9.48465 18.3313 8.98267 18.17 8.56261 17.8717C8.14256 17.5733 7.82493 17.1525 7.6532 16.6667H12.3465C12.1748 17.1525 11.8572 17.5733 11.4371 17.8717C11.0171 18.17 10.5151 18.3313 9.99986 18.3334V18.3334ZM16.7715 14.0126C16.5393 14.3206 16.2385 14.5703 15.8929 14.7417C15.5473 14.9131 15.1665 15.0016 14.7807 15.0001H4.9882C4.61385 15 4.2443 14.9159 3.90681 14.7539C3.56933 14.5919 3.27253 14.3562 3.03833 14.0641C2.80413 13.7721 2.6385 13.4312 2.55366 13.0666C2.46883 12.702 2.46696 12.323 2.5482 11.9576L3.7732 6.44423C4.06849 5.11607 4.79929 3.92474 5.84941 3.05961C6.89953 2.19448 8.20872 1.70521 9.56884 1.66958C10.929 1.63395 12.262 2.054 13.356 2.86296C14.4499 3.67192 15.2421 4.82336 15.6065 6.13423L17.1899 11.8309C17.2945 12.202 17.3111 12.5925 17.2385 12.9712C17.1659 13.3499 17.006 13.7064 16.7715 14.0126V14.0126Z" fill="white"/>
</svg>
